<?xml version="1.0" encoding="UTF-8" standalone="no"?><!DOCTYPE svg PUBLIC "-//W3C//DTD SVG 1.1//EN" "http://www.w3.org/Graphics/SVG/1.1/DTD/svg11.dtd"><svg width="100%" height="100%" viewBox="0 0 216 216" version="1.1" xmlns="http://www.w3.org/2000/svg" xmlns:xlink="http://www.w3.org/1999/xlink" xml:space="preserve" style="fill-rule:evenodd;clip-rule:evenodd;stroke-linejoin:round;stroke-miterlimit:1.41421;"><path id="ball" d="M108,216c-59.552,0 -108,-48.448 -108,-108c0,-59.552 48.448,-108 108,-108c59.552,0 108,48.448 108,108c0,59.552 -48.448,108 -108,108Zm91.082,-93.216c-3.156,-0.997 -28.553,-8.571 -57.461,-3.944c12.066,33.156 16.976,60.161 17.921,65.773c20.696,-13.994 35.428,-36.162 39.54,-61.829Zm-55.048,70.274c-1.372,-8.094 -6.728,-36.3 -19.679,-69.956c-0.203,0.07 -0.406,0.135 -0.609,0.206c-52.031,18.131 -70.709,54.214 -72.369,57.608c15.641,12.197 35.297,19.473 56.623,19.473c12.779,0 24.958,-2.613 36.034,-7.331Zm-104.568,-23.237c2.09,-3.577 27.407,-45.496 74.984,-60.875c1.202,-0.388 2.414,-0.753 3.635,-1.097c-2.316,-5.241 -4.838,-10.487 -7.479,-15.655c-46.068,13.787 -90.772,13.211 -94.808,13.128c-0.028,0.936 -0.047,1.875 -0.047,2.819c0,23.693 8.982,45.326 23.715,61.68Zm-21.766,-80.574c4.126,0.054 42.132,0.219 85.283,-11.239c-15.285,-27.172 -31.77,-50.016 -34.202,-53.351c-25.808,12.173 -45.099,35.964 -51.081,64.59Zm68.682,-70.791c2.55,3.415 19.305,26.23 34.421,54.004c32.803,-12.295 46.689,-30.96 48.348,-33.323c-16.29,-14.453 -37.712,-23.245 -61.151,-23.245c-7.443,0 -14.681,0.892 -21.618,2.564Zm93.024,31.349c-1.944,2.63 -17.403,22.447 -51.51,36.372c2.146,4.394 4.204,8.863 6.12,13.362c0.679,1.595 1.34,3.181 1.987,4.761c30.695,-3.86 61.193,2.326 64.235,2.969c-0.203,-21.773 -7.984,-41.767 -20.832,-57.464Z"/></svg>